<?xml version="1.0" encoding="UTF-8" standalone="no" ?>
<!DOCTYPE svg PUBLIC "-//W3C//DTD SVG 1.1//EN" "http://www.w3.org/Graphics/SVG/1.1/DTD/svg11.dtd">
<svg xmlns="http://www.w3.org/2000/svg" xmlns:xlink="http://www.w3.org/1999/xlink" version="1.1" width="400" height="400" viewBox="0 0 400 400" xml:space="preserve">
<desc>Created with Fabric.js 3.6.2</desc>
<defs>
</defs>
<g transform="matrix(0.39 0 0 0.39 200.39 172.89)" id="Layer_1"  >
<path style="stroke: none; stroke-width: 1; stroke-dasharray: none; stroke-linecap: butt; stroke-dashoffset: 0; stroke-linejoin: miter; stroke-miterlimit: 4; fill: rgb(0,0,0); fill-rule: nonzero; opacity: 1;"  transform=" translate(-257, -186.6)" d="M 67 148.7 c 11 5.8 163.8 89.1 169.5 92.1 c 5.7 3 11.5 4.4 20.5 4.4 c 9 0 14.8 -1.4 20.5 -4.4 c 5.7 -3 158.5 -86.3 169.5 -92.1 c 4.1 -2.1 11 -5.9 12.5 -10.2 c 2.6 -7.6 -0.2 -10.5 -11.3 -10.5 H 257 H 65.8 c -11.1 0 -13.9 3 -11.3 10.5 C 56 142.9 62.9 146.6 67 148.7 z" stroke-linecap="round" />
</g>
<g transform="matrix(0.39 0 0 0.39 200 204.58)" id="Layer_1"  >
<path style="stroke: none; stroke-width: 1; stroke-dasharray: none; stroke-linecap: butt; stroke-dashoffset: 0; stroke-linejoin: miter; stroke-miterlimit: 4; fill: rgb(0,0,0); fill-rule: nonzero; opacity: 1;"  transform=" translate(-256, -267.73)" d="M 455.7 153.2 c -8.2 4.2 -81.8 56.6 -130.5 88.1 l 82.2 92.5 c 2 2 2.9 4.4 1.8 5.6 c -1.2 1.1 -3.8 0.5 -5.9 -1.4 l -98.6 -83.2 c -14.9 9.6 -25.4 16.2 -27.2 17.2 c -7.7 3.9 -13.1 4.4 -20.5 4.4 c -7.4 0 -12.8 -0.5 -20.5 -4.4 c -1.9 -1 -12.3 -7.6 -27.2 -17.2 l -98.6 83.2 c -2 2 -4.7 2.6 -5.9 1.4 c -1.2 -1.1 -0.3 -3.6 1.7 -5.6 l 82.1 -92.5 c -48.7 -31.5 -123.1 -83.9 -131.3 -88.1 c -8.8 -4.5 -9.3 0.8 -9.3 4.9 c 0 4.1 0 205 0 205 c 0 9.3 13.7 20.9 23.5 20.9 H 257 h 185.5 c 9.8 0 21.5 -11.7 21.5 -20.9 c 0 0 0 -201 0 -205 C 464 153.9 464.6 148.7 455.7 153.2 z" stroke-linecap="round" />
</g>
</svg>