<?xml version="1.0" encoding="UTF-8" standalone="no" ?>
<!DOCTYPE svg PUBLIC "-//W3C//DTD SVG 1.1//EN" "http://www.w3.org/Graphics/SVG/1.1/DTD/svg11.dtd">
<svg xmlns="http://www.w3.org/2000/svg" xmlns:xlink="http://www.w3.org/1999/xlink" version="1.1" width="400" height="400" viewBox="0 0 400 400" xml:space="preserve">
<desc>Created with Fabric.js 3.6.2</desc>
<defs>
</defs>
<g transform="matrix(8.33 0 0 8.33 200.01 200)"  >
<path style="stroke: none; stroke-width: 1; stroke-dasharray: none; stroke-linecap: butt; stroke-dashoffset: 0; stroke-linejoin: miter; stroke-miterlimit: 4; fill: rgb(0,0,0); fill-rule: nonzero; opacity: 1;"  transform=" translate(-12, -12)" d="M 20.947 8.305 a 6.53 6.53 0 0 0 -0.419 -2.216 a 4.61 4.61 0 0 0 -2.633 -2.633 a 6.606 6.606 0 0 0 -2.186 -0.42 c -0.962 -0.043 -1.267 -0.055 -3.709 -0.055 s -2.755 0 -3.71 0.055 a 6.606 6.606 0 0 0 -2.185 0.42 a 4.607 4.607 0 0 0 -2.633 2.633 a 6.554 6.554 0 0 0 -0.419 2.185 c -0.043 0.963 -0.056 1.268 -0.056 3.71 s 0 2.754 0.056 3.71 c 0.015 0.748 0.156 1.486 0.419 2.187 a 4.61 4.61 0 0 0 2.634 2.632 a 6.584 6.584 0 0 0 2.185 0.45 c 0.963 0.043 1.268 0.056 3.71 0.056 s 2.755 0 3.71 -0.056 a 6.59 6.59 0 0 0 2.186 -0.419 a 4.615 4.615 0 0 0 2.633 -2.633 c 0.263 -0.7 0.404 -1.438 0.419 -2.187 c 0.043 -0.962 0.056 -1.267 0.056 -3.71 c -0.002 -2.442 -0.002 -2.752 -0.058 -3.709 z m -8.953 8.297 c -2.554 0 -4.623 -2.069 -4.623 -4.623 s 2.069 -4.623 4.623 -4.623 a 4.623 4.623 0 0 1 0 9.246 z m 4.807 -8.339 a 1.077 1.077 0 0 1 -1.078 -1.078 a 1.077 1.077 0 1 1 2.155 0 c 0 0.596 -0.482 1.078 -1.077 1.078 z" stroke-linecap="round" />
</g>
<g transform="matrix(8.33 0 0 8.33 199.95 199.82)"  >
<circle style="stroke: none; stroke-width: 1; stroke-dasharray: none; stroke-linecap: butt; stroke-dashoffset: 0; stroke-linejoin: miter; stroke-miterlimit: 4; fill: rgb(0,0,0); fill-rule: nonzero; opacity: 1;"  cx="0" cy="0" r="3.003" />
</g>
</svg>